# xmcd
#
# Track frame offsets:
#	150
#	19445
#	39520
#	57182
#	76892
#	89590
#	107500
#	129990
#	143482
#	158970
#
# Disc length: 2258 seconds
#
# Revision: 0
# Processed by: cddbd v1.5.1PL0 Copyright (c) Steve Scherf et al.
# Submitted via: audiograbber 1.83.01
#
DISCID=7908d00a
DTITLE=Wynonna Judd - Wynonna
DYEAR=1992
DGENRE=Country
TTITLE0=What It Takes
TTITLE1=She Is His Only Need
TTITLE2=I Saw The Light
TTITLE3=My Strongest Weakness
TTITLE4=When I Reach The Place I'm Goin'
TTITLE5=No One Else On Earth
TTITLE6=It's Never Easy To Say Goodbye
TTITLE7=A Little Bit Of Love (Goes A Long, Long Way)
TTITLE8=All Of That Love From Here
TTITLE9=Live With Jesus
EXTD=YEAR: 1992
EXTT0=
EXTT1=
EXTT2=
EXTT3=
EXTT4=
EXTT5=
EXTT6=
EXTT7=
EXTT8=
EXTT9=
PLAYORDER=
